# xmcd
#
# Track frame offsets: 
#        150
#        18370
#        36851
#        60713
#        76105
#        107307
#        130397
#        151835
#        171462
#
# Disc length: 2494 seconds
#
# Revision: 1
# Processed by: cddbd v1.5.1PL0 Copyright (c) Steve Scherf et al.
# Submitted via: ExactAudioCopy v0.95a5
#
DISCID=6609bc09
DTITLE=Dan Wilson - Dan Wilson @ Bryant Lake Bowl
DYEAR=1998
DGENRE=Rock
TTITLE0=Great Divide
TTITLE1=All Worked Out
TTITLE2=DND
TTITLE3=A Long Way From Home
TTITLE4=Brand New Baby
TTITLE5=Rising
TTITLE6=Made to Last
TTITLE7=If I Run
TTITLE8=Because
EXTD=
EXTT0=
EXTT1=
EXTT2=
EXTT3=
EXTT4=
EXTT5=
EXTT6=
EXTT7=
EXTT8=
PLAYORDER=
